<mxfile host="65bd71144e">
    <diagram id="JsvRfnEq5Fq7doFDTPvg" name="Page-1">
        <mxGraphModel dx="986" dy="433" grid="1" gridSize="10" guides="1" tooltips="1" connect="1" arrows="1" fold="1" page="1" pageScale="1" pageWidth="850" pageHeight="1100" math="0" shadow="0">
            <root>
                <mxCell id="0"/>
                <mxCell id="1" parent="0"/>
                <mxCell id="2" value="start" style="ellipse;whiteSpace=wrap;html=1;" vertex="1" parent="1">
                    <mxGeometry x="170" y="40" width="80" height="40" as="geometry"/>
                </mxCell>
                <mxCell id="3" value="data visualization&lt;br&gt;&amp;amp; Eda" style="shape=parallelogram;perimeter=parallelogramPerimeter;whiteSpace=wrap;html=1;fixedSize=1;" vertex="1" parent="1">
                    <mxGeometry x="147.5" y="110" width="125" height="40" as="geometry"/>
                </mxCell>
                <mxCell id="4" value="" style="endArrow=classic;html=1;exitX=0.5;exitY=1;exitDx=0;exitDy=0;" edge="1" parent="1" source="2">
                    <mxGeometry width="50" height="50" relative="1" as="geometry">
                        <mxPoint x="160" y="240" as="sourcePoint"/>
                        <mxPoint x="210" y="110" as="targetPoint"/>
                    </mxGeometry>
                </mxCell>
                <mxCell id="6" value="" style="endArrow=classic;html=1;exitX=0.5;exitY=1;exitDx=0;exitDy=0;entryX=0.5;entryY=0;entryDx=0;entryDy=0;" edge="1" parent="1" source="3">
                    <mxGeometry width="50" height="50" relative="1" as="geometry">
                        <mxPoint x="200" y="240" as="sourcePoint"/>
                        <mxPoint x="210" y="180" as="targetPoint"/>
                    </mxGeometry>
                </mxCell>
                <mxCell id="8" value="tf batchify ,split into train, validation &amp;amp; test sets" style="rounded=0;whiteSpace=wrap;html=1;" vertex="1" parent="1">
                    <mxGeometry x="145" y="180" width="130" height="60" as="geometry"/>
                </mxCell>
                <mxCell id="9" value="data preprocessing&amp;nbsp;&lt;br&gt;(cache, shuffle, prefetch, resize, rescale, augumentation)" style="rounded=0;whiteSpace=wrap;html=1;" vertex="1" parent="1">
                    <mxGeometry x="150" y="260" width="120" height="70" as="geometry"/>
                </mxCell>
                <mxCell id="11" value="" style="endArrow=classic;html=1;exitX=0.5;exitY=1;exitDx=0;exitDy=0;entryX=0.5;entryY=0;entryDx=0;entryDy=0;" edge="1" parent="1" source="8" target="9">
                    <mxGeometry width="50" height="50" relative="1" as="geometry">
                        <mxPoint x="200" y="210" as="sourcePoint"/>
                        <mxPoint x="250" y="160" as="targetPoint"/>
                    </mxGeometry>
                </mxCell>
                <mxCell id="13" value="" style="rounded=0;whiteSpace=wrap;html=1;rotation=90;" vertex="1" parent="1">
                    <mxGeometry x="220" y="130" width="290" height="120" as="geometry"/>
                </mxCell>
                <mxCell id="14" value="applying convolution layer follwed by maxpooling iterativley(6)" style="rounded=0;whiteSpace=wrap;html=1;" vertex="1" parent="1">
                    <mxGeometry x="315" y="240" width="100" height="80" as="geometry"/>
                </mxCell>
                <mxCell id="15" value="" style="endArrow=classic;html=1;exitX=0.5;exitY=0;exitDx=0;exitDy=0;entryX=0.5;entryY=1;entryDx=0;entryDy=0;" edge="1" parent="1" source="14">
                    <mxGeometry width="50" height="50" relative="1" as="geometry">
                        <mxPoint x="470" y="180" as="sourcePoint"/>
                        <mxPoint x="365" y="220" as="targetPoint"/>
                    </mxGeometry>
                </mxCell>
                <mxCell id="17" value="Dense(64, activation='relu')" style="rounded=0;whiteSpace=wrap;html=1;" vertex="1" parent="1">
                    <mxGeometry x="315" y="120" width="100" height="40" as="geometry"/>
                </mxCell>
                <mxCell id="18" value="" style="endArrow=classic;html=1;exitX=0.5;exitY=0;exitDx=0;exitDy=0;entryX=0.5;entryY=1;entryDx=0;entryDy=0;" edge="1" parent="1" target="17">
                    <mxGeometry width="50" height="50" relative="1" as="geometry">
                        <mxPoint x="365" y="180" as="sourcePoint"/>
                        <mxPoint x="520" y="140" as="targetPoint"/>
                    </mxGeometry>
                </mxCell>
                <mxCell id="19" value="Dense(n_classes, activation='softmax')" style="rounded=0;whiteSpace=wrap;html=1;" vertex="1" parent="1">
                    <mxGeometry x="310" y="60" width="110" height="40" as="geometry"/>
                </mxCell>
                <mxCell id="20" value="" style="endArrow=classic;html=1;exitX=0.5;exitY=0;exitDx=0;exitDy=0;entryX=0.5;entryY=1;entryDx=0;entryDy=0;" edge="1" parent="1" source="17" target="19">
                    <mxGeometry width="50" height="50" relative="1" as="geometry">
                        <mxPoint x="470" y="190" as="sourcePoint"/>
                        <mxPoint x="520" y="140" as="targetPoint"/>
                    </mxGeometry>
                </mxCell>
                <mxCell id="21" value="model building" style="text;html=1;align=center;verticalAlign=middle;resizable=0;points=[];autosize=1;strokeColor=none;fillColor=none;" vertex="1" parent="1">
                    <mxGeometry x="317.5" y="330" width="100" height="30" as="geometry"/>
                </mxCell>
                <mxCell id="22" value="compile using adam optimizer and loss function" style="rounded=0;whiteSpace=wrap;html=1;" vertex="1" parent="1">
                    <mxGeometry x="460" y="50" width="120" height="60" as="geometry"/>
                </mxCell>
                <mxCell id="23" value="" style="endArrow=classic;html=1;exitX=0.122;exitY=-0.017;exitDx=0;exitDy=0;exitPerimeter=0;entryX=0;entryY=0.5;entryDx=0;entryDy=0;" edge="1" parent="1" source="13" target="22">
                    <mxGeometry width="50" height="50" relative="1" as="geometry">
                        <mxPoint x="470" y="240" as="sourcePoint"/>
                        <mxPoint x="520" y="190" as="targetPoint"/>
                    </mxGeometry>
                </mxCell>
                <mxCell id="24" value="model.fit()" style="rounded=0;whiteSpace=wrap;html=1;" vertex="1" parent="1">
                    <mxGeometry x="460" y="130" width="120" height="40" as="geometry"/>
                </mxCell>
                <mxCell id="25" value="" style="endArrow=classic;html=1;exitX=0.5;exitY=1;exitDx=0;exitDy=0;" edge="1" parent="1" source="22" target="24">
                    <mxGeometry width="50" height="50" relative="1" as="geometry">
                        <mxPoint x="470" y="230" as="sourcePoint"/>
                        <mxPoint x="520" y="180" as="targetPoint"/>
                    </mxGeometry>
                </mxCell>
                <mxCell id="26" value="plot accuracy and&amp;nbsp; loss curves Vs number epochs" style="rounded=0;whiteSpace=wrap;html=1;" vertex="1" parent="1">
                    <mxGeometry x="460" y="190" width="120" height="40" as="geometry"/>
                </mxCell>
                <mxCell id="27" value="" style="endArrow=classic;html=1;exitX=1;exitY=0.5;exitDx=0;exitDy=0;entryX=0.862;entryY=0.958;entryDx=0;entryDy=0;entryPerimeter=0;" edge="1" parent="1" source="9" target="13">
                    <mxGeometry width="50" height="50" relative="1" as="geometry">
                        <mxPoint x="470" y="230" as="sourcePoint"/>
                        <mxPoint x="520" y="180" as="targetPoint"/>
                    </mxGeometry>
                </mxCell>
                <mxCell id="28" value="" style="endArrow=classic;html=1;entryX=0.5;entryY=0;entryDx=0;entryDy=0;exitX=0.5;exitY=1;exitDx=0;exitDy=0;" edge="1" parent="1" source="24" target="26">
                    <mxGeometry width="50" height="50" relative="1" as="geometry">
                        <mxPoint x="470" y="220" as="sourcePoint"/>
                        <mxPoint x="520" y="170" as="targetPoint"/>
                    </mxGeometry>
                </mxCell>
                <mxCell id="29" value="run prediction on a few random samples" style="rounded=0;whiteSpace=wrap;html=1;" vertex="1" parent="1">
                    <mxGeometry x="460" y="250" width="120" height="40" as="geometry"/>
                </mxCell>
                <mxCell id="30" value="" style="endArrow=classic;html=1;exitX=0.5;exitY=1;exitDx=0;exitDy=0;entryX=0.5;entryY=0;entryDx=0;entryDy=0;" edge="1" parent="1" source="26" target="29">
                    <mxGeometry width="50" height="50" relative="1" as="geometry">
                        <mxPoint x="470" y="220" as="sourcePoint"/>
                        <mxPoint x="520" y="170" as="targetPoint"/>
                    </mxGeometry>
                </mxCell>
                <mxCell id="31" value="save the model" style="rounded=0;whiteSpace=wrap;html=1;" vertex="1" parent="1">
                    <mxGeometry x="460" y="310" width="120" height="35" as="geometry"/>
                </mxCell>
                <mxCell id="33" value="" style="endArrow=classic;html=1;exitX=0.5;exitY=1;exitDx=0;exitDy=0;" edge="1" parent="1" source="29">
                    <mxGeometry width="50" height="50" relative="1" as="geometry">
                        <mxPoint x="470" y="220" as="sourcePoint"/>
                        <mxPoint x="520" y="310" as="targetPoint"/>
                    </mxGeometry>
                </mxCell>
                <mxCell id="34" value="Run on postman API interface using fastapi" style="rounded=0;whiteSpace=wrap;html=1;" vertex="1" parent="1">
                    <mxGeometry x="610" y="305" width="120" height="45" as="geometry"/>
                </mxCell>
                <mxCell id="35" value="" style="endArrow=classic;html=1;exitX=1;exitY=0.5;exitDx=0;exitDy=0;entryX=0;entryY=0.5;entryDx=0;entryDy=0;" edge="1" parent="1" source="31" target="34">
                    <mxGeometry width="50" height="50" relative="1" as="geometry">
                        <mxPoint x="470" y="210" as="sourcePoint"/>
                        <mxPoint x="520" y="160" as="targetPoint"/>
                    </mxGeometry>
                </mxCell>
                <mxCell id="37" value="" style="endArrow=classic;html=1;exitX=0.5;exitY=0;exitDx=0;exitDy=0;entryX=0.5;entryY=1;entryDx=0;entryDy=0;" edge="1" parent="1" source="34" target="40">
                    <mxGeometry width="50" height="50" relative="1" as="geometry">
                        <mxPoint x="660" y="310" as="sourcePoint"/>
                        <mxPoint x="670" y="290" as="targetPoint"/>
                    </mxGeometry>
                </mxCell>
                <mxCell id="40" value="Iterative enhancements" style="rounded=0;whiteSpace=wrap;html=1;" vertex="1" parent="1">
                    <mxGeometry x="610" y="240" width="120" height="40" as="geometry"/>
                </mxCell>
                <mxCell id="41" value="End" style="ellipse;whiteSpace=wrap;html=1;" vertex="1" parent="1">
                    <mxGeometry x="620" y="150" width="100" height="50" as="geometry"/>
                </mxCell>
                <mxCell id="43" value="" style="endArrow=classic;html=1;entryX=0.5;entryY=1;entryDx=0;entryDy=0;exitX=0.5;exitY=0;exitDx=0;exitDy=0;" edge="1" parent="1" source="40" target="41">
                    <mxGeometry width="50" height="50" relative="1" as="geometry">
                        <mxPoint x="670" y="220" as="sourcePoint"/>
                        <mxPoint x="720" y="170" as="targetPoint"/>
                    </mxGeometry>
                </mxCell>
                <mxCell id="44" value="Flatten()" style="rounded=0;whiteSpace=wrap;html=1;" vertex="1" parent="1">
                    <mxGeometry x="310" y="180" width="110" height="40" as="geometry"/>
                </mxCell>
            </root>
        </mxGraphModel>
    </diagram>
</mxfile>